HIERARCHY
ROOT Yihan_28_06:Solving:Hips
{
	OFFSET 0.000000 0.000000 0.000000
	CHANNELS 6 Xposition Yposition Zposition Xrotation Yrotation Zrotation
	JOINT Yihan_28_06:Solving:Spine
	{
		OFFSET 0.000000 -10.933681 1.754050
		CHANNELS 6 Xposition Yposition Zposition Xrotation Yrotation Zrotation
		JOINT Yihan_28_06:Solving:Spine1
		{
			OFFSET 0.000000 -9.267541 1.634120
			CHANNELS 6 Xposition Yposition Zposition Xrotation Yrotation Zrotation
			JOINT Yihan_28_06:Solving:Spine2
			{
				OFFSET 0.000000 -9.374699 0.820182
				CHANNELS 6 Xposition Yposition Zposition Xrotation Yrotation Zrotation
				JOINT Yihan_28_06:Solving:Spine3
				{
					OFFSET 0.000000 -9.410507 0.000000
					CHANNELS 6 Xposition Yposition Zposition Xrotation Yrotation Zrotation
					JOINT Yihan_28_06:Solving:Neck
					{
						OFFSET 0.000000 -12.099224 -1.209920
						CHANNELS 6 Xposition Yposition Zposition Xrotation Yrotation Zrotation
						JOINT Yihan_28_06:Solving:Neck1
						{
							OFFSET 0.000000 -7.349789 -0.643021
							CHANNELS 6 Xposition Yposition Zposition Xrotation Yrotation Zrotation
							JOINT Yihan_28_06:Solving:Head
							{
								OFFSET 0.000000 -7.265778 -1.281152
								CHANNELS 6 Xposition Yposition Zposition Xrotation Yrotation Zrotation
								JOINT Yihan_28_06:Solving:HeadEnd
								{
									OFFSET 0.000000 -9.728081 0.000002
									CHANNELS 6 Xposition Yposition Zposition Xrotation Yrotation Zrotation
									End Site
									{
										OFFSET 0.000000 -9.728081 0.000002
									}
								}
							}
						}
					}
					JOINT Yihan_28_06:Solving:RightShoulder
					{
						OFFSET 0.000000 -8.642303 -5.270916
						CHANNELS 6 Xposition Yposition Zposition Xrotation Yrotation Zrotation
						JOINT Yihan_28_06:Solving:RightArm
						{
							OFFSET -17.619331 -0.000004 0.000000
							CHANNELS 6 Xposition Yposition Zposition Xrotation Yrotation Zrotation
							JOINT Yihan_28_06:Solving:RightForeArm
							{
								OFFSET -29.732449 -0.000008 0.000000
								CHANNELS 6 Xposition Yposition Zposition Xrotation Yrotation Zrotation
								JOINT Yihan_28_06:Solving:RightHand
								{
									OFFSET -23.617275 -0.000008 0.000000
									CHANNELS 6 Xposition Yposition Zposition Xrotation Yrotation Zrotation
									JOINT Yihan_28_06:Solving:RightHandThumb1
									{
										OFFSET -3.546165 2.953053 -2.636890
										CHANNELS 6 Xposition Yposition Zposition Xrotation Yrotation Zrotation
										End Site
										{
											OFFSET -5.198463 0.000000 -5.246530
										}
									}
									JOINT Yihan_28_06:Solving:RightHandMiddle1
									{
										OFFSET -9.456436 -0.000004 0.060618
										CHANNELS 6 Xposition Yposition Zposition Xrotation Yrotation Zrotation
										End Site
										{
											OFFSET -7.385803 -0.000004 0.000000
										}
									}
								}
							}
						}
					}
					JOINT Yihan_28_06:Solving:LeftShoulder
					{
						OFFSET 0.000000 -8.642303 -5.270916
						CHANNELS 6 Xposition Yposition Zposition Xrotation Yrotation Zrotation
						JOINT Yihan_28_06:Solving:LeftArm
						{
							OFFSET 17.619331 -0.000004 0.000000
							CHANNELS 6 Xposition Yposition Zposition Xrotation Yrotation Zrotation
							JOINT Yihan_28_06:Solving:LeftForeArm
							{
								OFFSET 29.732449 -0.000008 0.000000
								CHANNELS 6 Xposition Yposition Zposition Xrotation Yrotation Zrotation
								JOINT Yihan_28_06:Solving:LeftHand
								{
									OFFSET 23.617275 -0.000008 0.000000
									CHANNELS 6 Xposition Yposition Zposition Xrotation Yrotation Zrotation
									JOINT Yihan_28_06:Solving:LeftHandThumb1
									{
										OFFSET 3.546165 2.953053 -2.636890
										CHANNELS 6 Xposition Yposition Zposition Xrotation Yrotation Zrotation
										End Site
										{
											OFFSET 5.198463 0.000000 -5.246530
										}
									}
									JOINT Yihan_28_06:Solving:LeftHandMiddle1
									{
										OFFSET 9.456436 -0.000004 0.060618
										CHANNELS 6 Xposition Yposition Zposition Xrotation Yrotation Zrotation
										End Site
										{
											OFFSET 7.385803 -0.000004 0.000000
										}
									}
								}
							}
						}
					}
				}
			}
		}
	}
	JOINT Yihan_28_06:Solving:RightUpLeg
	{
		OFFSET -12.221851 0.000000 0.000000
		CHANNELS 6 Xposition Yposition Zposition Xrotation Yrotation Zrotation
		JOINT Yihan_28_06:Solving:RightLeg
		{
			OFFSET 0.000000 44.387260 -0.000006
			CHANNELS 6 Xposition Yposition Zposition Xrotation Yrotation Zrotation
			JOINT Yihan_28_06:Solving:RightFoot
			{
				OFFSET 0.000000 37.410240 -0.000006
				CHANNELS 6 Xposition Yposition Zposition Xrotation Yrotation Zrotation
				JOINT Yihan_28_06:Solving:RightForeFoot
				{
					OFFSET 0.000000 4.107742 -0.000000
					CHANNELS 6 Xposition Yposition Zposition Xrotation Yrotation Zrotation
					JOINT Yihan_28_06:Solving:RightToeBase
					{
						OFFSET 0.000000 0.000000 -16.087208
						CHANNELS 6 Xposition Yposition Zposition Xrotation Yrotation Zrotation
						JOINT Yihan_28_06:Solving:RightToeBaseEnd
						{
							OFFSET 0.000000 0.000000 -3.506769
							CHANNELS 6 Xposition Yposition Zposition Xrotation Yrotation Zrotation
							End Site
							{
								OFFSET 0.000000 -3.506767 0.000000
							}
						}
					}
				}
			}
		}
	}
	JOINT Yihan_28_06:Solving:LeftUpLeg
	{
		OFFSET 12.221851 0.000000 0.000000
		CHANNELS 6 Xposition Yposition Zposition Xrotation Yrotation Zrotation
		JOINT Yihan_28_06:Solving:LeftLeg
		{
			OFFSET 0.000000 44.387260 -0.000006
			CHANNELS 6 Xposition Yposition Zposition Xrotation Yrotation Zrotation
			JOINT Yihan_28_06:Solving:LeftFoot
			{
				OFFSET 0.000000 37.410240 -0.000006
				CHANNELS 6 Xposition Yposition Zposition Xrotation Yrotation Zrotation
				JOINT Yihan_28_06:Solving:LeftForeFoot
				{
					OFFSET 0.000000 4.107742 -0.000000
					CHANNELS 6 Xposition Yposition Zposition Xrotation Yrotation Zrotation
					JOINT Yihan_28_06:Solving:LeftToeBase
					{
						OFFSET 0.000000 0.000000 -16.087208
						CHANNELS 6 Xposition Yposition Zposition Xrotation Yrotation Zrotation
						JOINT Yihan_28_06:Solving:LeftToeBaseEnd
						{
							OFFSET 0.000000 0.000000 -3.932585
							CHANNELS 6 Xposition Yposition Zposition Xrotation Yrotation Zrotation
							End Site
							{
								OFFSET 0.000000 -3.932587 0.000000
							}
						}
					}
				}
			}
		}
	}
}
MOTION
Frames: 5
Frame Time: 0.041667
3.777946 -36.572472 -88.491295 139.123672 -11.843816 14.165870 0.000003 -10.933657 1.754031 22.264636 0.523549 2.401420 -0.000002 -9.267551 1.634123 20.691913 -0.004280 1.991629 -0.000002 -9.374701 0.820190 27.556779 -7.843362 -1.218163 0.000000 -9.410502 0.000007 -9.260814 -1.693693 1.852124 0.000003 -12.099241 -1.209928 -18.254707 -2.311238 8.626225 0.000000 -7.349788 -0.643021 -0.401551 14.671598 -18.135226 0.000004 -7.265776 -1.281167 -0.289935 1.814976 -4.462922 0.000000 -9.728073 0.000009 0.000000 0.000000 0.000000 0.000003 -8.642323 -5.270925 0.000005 11.075414 21.890394 -17.619337 -0.000005 -0.000007 -51.837284 -49.328859 -97.587550 -29.732443 -0.000013 -0.000009 -156.658271 -39.039107 -164.794624 -23.617298 -0.000009 -0.000009 -1.434715 -5.685972 -14.186978 -3.546159 2.953049 -2.636886 0.000002 -0.000000 -0.000002 -9.456459 0.000011 0.060614 0.000002 -0.000003 -0.000000 0.000004 -8.642326 -5.270925 0.000014 -4.044283 -27.492714 17.619339 0.000018 0.000015 -33.374097 58.181341 94.352561 29.732447 0.000000 -0.000011 -105.405440 18.602795 130.820034 23.617271 -0.000011 -0.000005 2.434175 -4.413576 28.915869 3.546153 2.953025 -2.636891 -0.000008 0.000003 0.000004 9.456444 0.000009 0.060628 -0.000003 0.000003 -0.000000 -12.221851 0.000014 -0.000027 -61.900481 -0.088060 -5.734691 0.000001 44.387272 -0.000001 21.488359 -0.000000 0.000000 -0.000004 37.410248 -0.000007 -4.250793 19.798014 4.381242 -0.000000 4.107742 -0.000007 0.000001 -0.000000 0.000000 -0.000000 0.000016 -16.087215 15.583966 -0.000001 -0.000000 0.000000 0.000009 -3.506768 0.000004 -0.000000 -0.000000 12.221858 0.000008 -0.000022 -60.657312 0.988957 -3.219404 -0.000005 44.387276 -0.000006 16.407223 -0.000001 0.000001 0.000000 37.410255 -0.000006 -0.571560 2.896871 13.158444 0.000001 4.107742 -0.000004 0.000000 0.000002 -0.000003 -0.000008 0.000001 -16.087212 -4.154527 0.000001 -0.000001 -0.000000 -0.000000 -3.932586 -0.000001 -0.000001 0.000001 
3.801802 -36.597225 -88.471443 139.293184 -11.765709 14.140271 -0.000001 -10.933689 1.754047 22.254870 0.491814 2.394210 -0.000002 -9.267552 1.634121 20.758097 -0.001690 2.007505 0.000000 -9.374705 0.820185 27.693313 -7.816222 -1.285891 0.000002 -9.410509 -0.000001 -9.334723 -1.667569 1.804371 -0.000000 -12.099246 -1.209930 -18.218083 -2.353723 8.794009 -0.000002 -7.349799 -0.643030 -0.640109 14.860979 -18.153314 0.000000 -7.265775 -1.281146 -0.368196 1.823040 -4.449009 -0.000002 -9.728073 -0.000003 -0.000000 0.000000 -0.000000 0.000002 -8.642323 -5.270933 0.000011 11.044680 22.049345 -17.619333 -0.000019 -0.000014 -52.124141 -49.223066 -97.628996 -29.732456 -0.000015 -0.000004 -156.704224 -39.003922 -164.837600 -23.617285 -0.000005 0.000001 -1.425179 -5.637921 -14.211345 -3.546152 2.953049 -2.636888 -0.000000 -0.000000 -0.000002 -9.456448 0.000009 0.060619 0.000001 0.000003 -0.000004 0.000000 -8.642323 -5.270926 0.000015 -4.171642 -27.481920 17.619337 0.000003 0.000009 -33.518532 58.030448 94.320924 29.732456 0.000003 -0.000003 -105.412721 18.587308 130.856849 23.617279 -0.000014 -0.000003 2.435656 -4.417465 28.909397 3.546150 2.953053 -2.636886 0.000003 -0.000005 -0.000000 9.456442 -0.000008 0.060612 0.000008 0.000001 -0.000003 -12.221856 -0.000019 -0.000005 -62.278122 -0.522876 -5.806524 -0.000002 44.387260 -0.000009 21.752221 -0.000001 -0.000001 -0.000001 37.410263 -0.000004 -4.278764 20.275912 4.342741 -0.000000 4.107758 -0.000006 -0.000002 -0.000000 0.000000 -0.000000 0.000006 -16.087208 15.532958 -0.000001 -0.000000 -0.000001 0.000001 -3.506774 0.000003 0.000000 0.000000 12.221848 -0.000019 0.000009 -60.932022 0.948030 -3.193595 0.000000 44.387257 -0.000008 16.602983 -0.000001 0.000001 -0.000003 37.410252 -0.000010 -0.650568 2.865471 13.117420 -0.000005 4.107749 -0.000011 0.000000 0.000000 -0.000002 0.000000 0.000015 -16.087210 -4.147421 0.000003 -0.000001 -0.000006 -0.000008 -3.932588 -0.000001 -0.000000 -0.000002 
3.837517 -36.622360 -88.444145 139.439897 -11.705378 14.070689 -0.000002 -10.933698 1.754077 22.229590 0.481978 2.402491 -0.000001 -9.267543 1.634130 20.873932 0.003746 2.034321 -0.000002 -9.374714 0.820180 27.866991 -7.757875 -1.332550 0.000003 -9.410501 0.000010 -9.441988 -1.629551 1.764524 0.000006 -12.099259 -1.209933 -18.205379 -2.382125 8.916757 0.000000 -7.349791 -0.643038 -0.827846 14.994710 -18.166290 0.000001 -7.265778 -1.281141 -0.425009 1.830162 -4.449233 -0.000002 -9.728073 0.000012 0.000001 -0.000000 -0.000000 -0.000000 -8.642323 -5.270927 0.000010 10.979304 22.183056 -17.619335 -0.000002 -0.000013 -52.411515 -49.114142 -97.662751 -29.732445 -0.000007 -0.000004 -156.710890 -38.972837 -164.851916 -23.617285 -0.000008 -0.000001 -1.414161 -5.583908 -14.236291 -3.546159 2.953050 -2.636891 -0.000002 -0.000003 -0.000002 -9.456448 -0.000011 0.060618 -0.000000 -0.000005 0.000004 -0.000003 -8.642326 -5.270926 0.000014 -4.321617 -27.511481 17.619331 -0.000003 -0.000013 -33.655313 57.897321 94.285803 29.732441 0.000007 0.000002 -105.418410 18.573076 130.888759 23.617290 -0.000011 -0.000002 2.435009 -4.418062 28.899688 3.546156 2.953024 -2.636889 -0.000005 -0.000009 -0.000003 9.456456 -0.000019 0.060614 -0.000003 -0.000003 -0.000003 -12.221854 -0.000007 0.000014 -62.650006 -0.598417 -5.775404 -0.000001 44.387264 -0.000014 22.144704 0.000002 0.000001 -0.000001 37.410259 -0.000012 -4.385374 20.358134 4.344181 -0.000000 4.107742 -0.000005 0.000000 -0.000000 0.000000 -0.000000 0.000024 -16.087214 15.496700 -0.000001 -0.000000 -0.000000 0.000000 -3.506773 0.000001 -0.000000 0.000000 12.221848 -0.000008 0.000005 -61.178913 0.888374 -3.130334 -0.000004 44.387276 -0.000004 16.809785 0.000003 0.000001 -0.000004 37.410267 -0.000002 -0.743121 2.815501 13.102483 -0.000004 4.107742 -0.000003 0.000000 0.000000 -0.000001 -0.000003 0.000009 -16.087208 -4.126191 0.000003 -0.000002 -0.000003 -0.000008 -3.932583 -0.000000 -0.000000 -0.000001 
3.875301 -36.646152 -88.415230 139.559520 -11.659369 14.004492 -0.000002 -10.933694 1.754056 22.222900 0.466733 2.383816 0.000002 -9.267540 1.634129 21.027996 0.015916 2.032494 -0.000000 -9.374709 0.820200 28.014902 -7.664607 -1.362685 0.000004 -9.410505 -0.000028 -9.522797 -1.609252 1.752984 -0.000001 -12.099254 -1.209923 -18.129422 -2.367197 9.019209 -0.000001 -7.349791 -0.643034 -1.019479 15.145647 -18.200706 0.000002 -7.265775 -1.281163 -0.495187 1.825265 -4.401553 -0.000001 -9.728081 0.000016 -0.000000 -0.000001 0.000001 -0.000001 -8.642330 -5.270937 0.000008 10.916587 22.310888 -17.619333 -0.000004 0.000005 -52.722736 -48.975882 -97.724776 -29.732449 -0.000012 -0.000003 -156.766051 -38.981819 -164.887433 -23.617289 0.000002 0.000002 -1.399132 -5.503797 -14.287134 -3.546150 2.953018 -2.636884 -0.000001 -0.000007 -0.000001 -9.456451 0.000006 0.060610 -0.000002 0.000003 -0.000000 -0.000006 -8.642334 -5.270936 0.000015 -4.432030 -27.538413 17.619328 -0.000009 -0.000017 -33.724786 57.797457 94.163071 29.732452 -0.000003 0.000000 -105.425302 18.556159 130.927036 23.617287 -0.000002 0.000002 2.431372 -4.415083 28.879676 3.546146 2.953038 -2.636889 -0.000004 -0.000003 -0.000005 9.456455 -0.000001 0.060630 -0.000005 -0.000008 0.000004 -12.221858 -0.000007 0.000002 -63.011801 -0.703940 -5.747148 0.000001 44.387283 -0.000006 22.576885 0.000004 -0.000000 -0.000001 37.410252 -0.000012 -4.495476 20.470162 4.312508 -0.000000 4.107742 -0.000004 0.000001 0.000000 0.000000 -0.000000 0.000007 -16.087208 15.412657 -0.000001 -0.000000 -0.000001 0.000001 -3.506778 0.000004 -0.000000 -0.000000 12.221851 -0.000008 -0.000000 -61.406249 0.841050 -3.065031 -0.000013 44.387268 -0.000009 17.034719 -0.000003 0.000001 0.000001 37.410267 -0.000005 -0.841216 2.765392 13.095055 -0.000007 4.107742 -0.000005 -0.000000 -0.000003 -0.000002 -0.000002 0.000006 -16.087210 -4.107566 0.000006 -0.000003 -0.000008 -0.000015 -3.932587 0.000000 0.000004 0.000000 
3.899389 -36.674957 -88.388863 139.704635 -11.598241 13.995996 -0.000002 -10.933677 1.754068 22.246710 0.431260 2.347460 -0.000001 -9.267548 1.634118 21.140132 0.029815 2.015776 -0.000000 -9.374708 0.820197 28.131447 -7.622281 -1.416572 0.000001 -9.410509 -0.000010 -9.605613 -1.585003 1.777586 0.000001 -12.099220 -1.209922 -18.042305 -2.350225 9.084743 -0.000004 -7.349786 -0.643021 -1.214527 15.251787 -18.143453 0.000001 -7.265779 -1.281160 -0.550339 1.840709 -4.424688 0.000002 -9.728073 0.000020 -0.000000 0.000000 -0.000000 0.000003 -8.642300 -5.270912 0.000007 10.862670 22.411667 -17.619328 -0.000006 -0.000006 -53.003897 -48.897379 -97.788836 -29.732456 -0.000016 0.000009 -156.833656 -38.991279 -164.931433 -23.617292 -0.000009 -0.000009 -1.374769 -5.420678 -14.254245 -3.546154 2.953049 -2.636893 -0.000002 0.000002 -0.000005 -9.456429 -0.000018 0.060616 -0.000001 0.000000 -0.000000 0.000003 -8.642300 -5.270911 0.000013 -4.499163 -27.564975 17.619335 0.000000 -0.000021 -33.771150 57.734585 94.034418 29.732441 0.000014 -0.000001 -105.429557 18.547949 130.947362 23.617285 0.000002 0.000007 2.434699 -4.423149 28.868744 3.546174 2.953049 -2.636882 -0.000000 -0.000009 0.000001 9.456451 -0.000008 0.060619 -0.000001 -0.000001 0.000000 -12.221851 0.000007 0.000002 -63.389148 -0.970702 -5.796184 0.000000 44.387268 -0.000005 22.930646 0.000000 0.000002 0.000002 37.410240 -0.000010 -4.540486 20.789028 4.261925 -0.000001 4.107742 -0.000004 -0.000000 0.000000 -0.000000 -0.000001 0.000014 -16.087214 15.326536 -0.000001 -0.000000 -0.000000 0.000000 -3.506773 0.000001 0.000000 0.000000 12.221853 0.000010 0.000001 -61.710937 0.765358 -3.051036 -0.000005 44.387280 -0.000003 17.330840 -0.000000 -0.000000 -0.000007 37.410259 -0.000002 -0.949656 2.790840 13.074632 0.000004 4.107742 -0.000004 -0.000000 0.000001 -0.000002 -0.000002 0.000008 -16.087221 -4.113882 0.000000 0.000001 -0.000002 -0.000008 -3.932582 -0.000001 0.000002 -0.000001 
